<?xml version="1.0"?>
<svg width="480" height="480" xmlns="http://www.w3.org/2000/svg" xmlns:svg="http://www.w3.org/2000/svg">
 <!-- Created with SVG-edit - https://github.com/SVG-Edit/svgedit-->
 <g class="layer">
  <title>Layer 1</title>
  <path d="m117.4,75.6l-71.4,328.4l124,22c0,0 4.4,-92.4 4.4,-92.4c0,0 -47,-1 -47,-1c0,0 0,-205 -0.4,-205.6c-0.4,-0.6 55.4,0.6 55,0c-0.4,-0.6 2.4,-80.4 2,-81c-0.4,-0.6 -66.6,29.6 -66.6,29.6z" fill="#00ff00" id="svg_14" stroke="#7fff00" stroke-width="5"/>
  <path d="m185.4,43.6c2,-1 109,82 108.6,81.4c-0.4,-0.6 -108.6,-1.4 -109,-2" fill="#00bf00" id="svg_15" stroke="#7fff00" stroke-width="5"/>
  <path d="m267.4,323.6c0,0 44,106 43.6,105.4c-0.4,-0.6 16.4,-103.4 16,-104" fill="#00bf00" id="svg_17" stroke="#00ff00" stroke-width="5"/>
  <path d="m308.4,433.6l79.6,17.4l52,-332l-116,-62c0,0 4.4,68.6 4.4,68.6c0,0 13,1 13,1c0,0 1,203 1,204c0,1 -20,-2 -20.4,-2.6" fill="#00ff00" id="svg_20" stroke="#00ff00" stroke-width="5"/>
  <rect fill="#000000" height="200" id="svg_5" stroke="#000000" stroke-width="5" width="240.85" x="119.94" y="129.6"/>
  <text fill="#ffffff" font-family="Courier" font-size="160.57" font-weight="bold" id="svg_6" stroke="#000000" stroke-width="0" text-anchor="middle" transform="matrix(1 0 0 1 0 0)" x="243.44" xml:space="preserve" y="280.12">NC</text>
 </g>
</svg>